<svg width="11" height="32" viewBox="0 0 11 32" fill="none" xmlns="http://www.w3.org/2000/svg">
<path d="M10.0083 32V35H13.0083V32H10.0083ZM5.52588 32H2.52588V35H5.52588V32ZM5.52588 4.92969H8.52588V-0.430513L3.95703 2.37259L5.52588 4.92969ZM0.977539 7.72021H-2.02246V13.0804L2.54638 10.2773L0.977539 7.72021ZM0.977539 3.08398L-0.686562 0.587833L-2.02246 1.47843V3.08398H0.977539ZM5.52588 0.0517578V-2.94824H4.61755L3.86178 -2.44439L5.52588 0.0517578ZM10.0083 0.0517578H13.0083V-2.94824H10.0083V0.0517578ZM10.0083 29H5.52588V35H10.0083V29ZM8.52588 32V4.92969H2.52588V32H8.52588ZM3.95703 2.37259L-0.591306 5.16312L2.54638 10.2773L7.09472 7.48678L3.95703 2.37259ZM3.97754 7.72021V3.08398H-2.02246V7.72021H3.97754ZM2.64164 5.58014L7.18998 2.54791L3.86178 -2.44439L-0.686562 0.587833L2.64164 5.58014ZM5.52588 3.05176H10.0083V-2.94824H5.52588V3.05176ZM7.0083 0.0517578V32H13.0083V0.0517578H7.0083Z" fill="#0A18B1"/>
</svg>
