<svg width="38" height="48" viewBox="0 0 38 48" fill="none" xmlns="http://www.w3.org/2000/svg">
<path d="M19 0C13.9609 0 9.12816 2.02285 5.56497 5.62353C2.00178 9.22422 0 14.1078 0 19.1999C0 32.1599 16.7438 46.7999 17.4563 47.4238C17.8864 47.7957 18.4339 48 19 48C19.5661 48 20.1136 47.7957 20.5437 47.4238C21.375 46.7999 38 32.1599 38 19.1999C38 14.1078 35.9982 9.22422 32.435 5.62353C28.8718 2.02285 24.0391 0 19 0ZM19 42.3599C13.9412 37.5599 4.75 27.2159 4.75 19.1999C4.75 15.3808 6.25134 11.7181 8.92373 9.01763C11.5961 6.31712 15.2207 4.79998 19 4.79998C22.7793 4.79998 26.4039 6.31712 29.0763 9.01763C31.7487 11.7181 33.25 15.3808 33.25 19.1999C33.25 27.2159 24.0588 37.5839 19 42.3599ZM19 9.59997C17.1211 9.59997 15.2844 10.163 13.7221 11.2179C12.1598 12.2727 10.9422 13.772 10.2231 15.5262C9.50411 17.2804 9.31598 19.2106 9.68254 21.0728C10.0491 22.935 10.9539 24.6456 12.2825 25.9881C13.6111 27.3307 15.3038 28.245 17.1466 28.6154C18.9895 28.9859 20.8996 28.7958 22.6355 28.0692C24.3714 27.3426 25.8551 26.1121 26.899 24.5334C27.9428 22.9547 28.5 21.0986 28.5 19.1999C28.5 16.6539 27.4991 14.2121 25.7175 12.4117C23.9359 10.6114 21.5196 9.59997 19 9.59997ZM19 23.9999C18.0605 23.9999 17.1422 23.7184 16.361 23.191C15.5799 22.6635 14.9711 21.9139 14.6116 21.0368C14.2521 20.1597 14.158 19.1946 14.3413 18.2635C14.5245 17.3324 14.9769 16.4771 15.6412 15.8058C16.3055 15.1345 17.1519 14.6774 18.0733 14.4922C18.9947 14.307 19.9498 14.402 20.8177 14.7653C21.6857 15.1286 22.4275 15.7439 22.9495 16.5332C23.4714 17.3226 23.75 18.2506 23.75 19.1999C23.75 20.473 23.2496 21.6939 22.3588 22.594C21.468 23.4942 20.2598 23.9999 19 23.9999Z" fill="#D1062B"/>
</svg>
