<svg width="30" height="38" viewBox="0 0 30 38" fill="none" xmlns="http://www.w3.org/2000/svg">
<path d="M15 0C11.0218 0 7.20644 1.60142 4.3934 4.45196C1.58035 7.30251 0 11.1687 0 15.2C0 25.4599 13.2188 37.0499 13.7813 37.5439C14.1209 37.8382 14.5531 38 15 38C15.4469 38 15.8791 37.8382 16.2188 37.5439C16.875 37.0499 30 25.4599 30 15.2C30 11.1687 28.4196 7.30251 25.6066 4.45196C22.7936 1.60142 18.9782 0 15 0ZM15 33.5349C11.0062 29.7349 3.75 21.5459 3.75 15.2C3.75 12.1765 4.93526 9.27687 7.04505 7.13896C9.15483 5.00105 12.0163 3.79999 15 3.79999C17.9837 3.79999 20.8452 5.00105 22.955 7.13896C25.0647 9.27687 26.25 12.1765 26.25 15.2C26.25 21.5459 18.9937 29.7539 15 33.5349ZM15 7.59998C13.5166 7.59998 12.0666 8.04571 10.8332 8.8808C9.59986 9.7159 8.63856 10.9029 8.0709 12.2916C7.50325 13.6803 7.35472 15.2084 7.64411 16.6826C7.9335 18.1569 8.64781 19.5111 9.6967 20.5739C10.7456 21.6368 12.082 22.3606 13.5368 22.6539C14.9917 22.9471 16.4997 22.7966 17.8701 22.2214C19.2406 21.6462 20.4119 20.6721 21.236 19.4223C22.0601 18.1725 22.5 16.7031 22.5 15.2C22.5 13.1843 21.7098 11.2512 20.3033 9.82596C18.8968 8.40068 16.9891 7.59998 15 7.59998ZM15 18.9999C14.2583 18.9999 13.5333 18.7771 12.9166 18.3595C12.2999 17.942 11.8193 17.3485 11.5355 16.6541C11.2516 15.9598 11.1774 15.1957 11.3221 14.4586C11.4667 13.7215 11.8239 13.0444 12.3484 12.513C12.8728 11.9815 13.541 11.6196 14.2684 11.473C14.9958 11.3264 15.7498 11.4016 16.4351 11.6892C17.1203 11.9768 17.706 12.4639 18.118 13.0888C18.5301 13.7137 18.75 14.4484 18.75 15.2C18.75 16.2078 18.3549 17.1743 17.6516 17.8869C16.9484 18.5996 15.9946 18.9999 15 18.9999Z" fill="#309A0F"/>
</svg>
