<svg width="200" height="58" viewBox="0 0 200 58" fill="none" xmlns="http://www.w3.org/2000/svg">
<circle cx="25.2174" cy="26.087" r="22.7174" stroke="white" stroke-width="5"/>
<path d="M34.3232 13.3272C34.3232 13.7942 34.2999 14.1912 34.2532 14.5182C34.222 14.8295 34.1676 15.0864 34.0897 15.2888C34.0119 15.4756 33.9107 15.6157 33.7861 15.7092C33.6772 15.787 33.5448 15.8259 33.3891 15.8259H23.3709V40.206C23.3709 40.3617 23.3164 40.5018 23.2074 40.6264C23.114 40.7353 22.9505 40.8287 22.717 40.9066C22.4835 40.9844 22.1721 41.0389 21.7829 41.0701C21.3937 41.1168 20.8955 41.1401 20.2883 41.1401C19.6967 41.1401 19.1986 41.1168 18.7938 41.0701C18.4046 41.0389 18.0932 40.9844 17.8597 40.9066C17.6261 40.8287 17.4549 40.7353 17.3459 40.6264C17.2525 40.5018 17.2058 40.3617 17.2058 40.206V12.72C17.2058 12.0662 17.3693 11.5835 17.6962 11.2722C18.0387 10.9452 18.4824 10.7818 19.0273 10.7818H33.3891C33.7005 10.7818 33.934 10.9764 34.0897 11.3656C34.2454 11.7548 34.3232 12.4087 34.3232 13.3272ZM79.8673 38.7114C80.0541 39.2719 80.1709 39.7156 80.2176 40.0425C80.2643 40.3695 80.202 40.6186 80.0308 40.7898C79.8595 40.9455 79.5559 41.0389 79.12 41.0701C78.6841 41.1168 78.0847 41.1401 77.3219 41.1401C76.5279 41.1401 75.9052 41.1245 75.4537 41.0934C75.0178 41.0778 74.683 41.0389 74.4495 40.9766C74.216 40.8988 74.0525 40.7976 73.9591 40.6731C73.8657 40.5485 73.7879 40.385 73.7256 40.1827L71.6939 34.111H60.3446L58.4296 40.0192C58.3674 40.2371 58.2817 40.424 58.1728 40.5797C58.0794 40.7198 57.9159 40.8365 57.6824 40.9299C57.4644 41.0078 57.1453 41.0623 56.7249 41.0934C56.3201 41.1245 55.783 41.1401 55.1136 41.1401C54.3974 41.1401 53.837 41.1168 53.4322 41.0701C53.0274 41.0234 52.7472 40.9144 52.5915 40.7431C52.4358 40.5563 52.3813 40.2994 52.428 39.9725C52.4747 39.6456 52.5915 39.2096 52.7783 38.6647L62.096 11.856C62.1894 11.5913 62.2984 11.3811 62.4229 11.2255C62.5475 11.0542 62.7421 10.9297 63.0068 10.8518C63.287 10.7584 63.6684 10.7039 64.151 10.6883C64.6336 10.6572 65.272 10.6416 66.0659 10.6416C66.9845 10.6416 67.7162 10.6572 68.2611 10.6883C68.806 10.7039 69.2263 10.7584 69.5221 10.8518C69.8335 10.9297 70.0514 11.0542 70.176 11.2255C70.3161 11.3967 70.4329 11.6302 70.5263 11.926L79.8673 38.7114ZM65.9959 16.5498H65.9725L61.699 29.3938H70.2694L65.9959 16.5498ZM113.895 19.9593C113.895 21.6563 113.63 23.1586 113.101 24.4664C112.572 25.7741 111.801 26.8795 110.789 27.7824C109.777 28.6698 108.532 29.3471 107.053 29.8141C105.589 30.2812 103.861 30.5147 101.868 30.5147H99.3462V40.1593C99.3462 40.315 99.2917 40.4551 99.1827 40.5797C99.0893 40.7042 98.9258 40.8054 98.6923 40.8832C98.4588 40.9611 98.1474 41.0234 97.7582 41.0701C97.369 41.1168 96.8708 41.1401 96.2636 41.1401C95.672 41.1401 95.1738 41.1168 94.7691 41.0701C94.3799 41.0234 94.0685 40.9611 93.835 40.8832C93.6014 40.8054 93.438 40.7042 93.3446 40.5797C93.2511 40.4551 93.2044 40.315 93.2044 40.1593V12.9769C93.2044 12.2452 93.3913 11.7003 93.7649 11.3422C94.1541 10.9686 94.6601 10.7818 95.2828 10.7818H102.405C103.122 10.7818 103.799 10.8129 104.437 10.8752C105.091 10.9219 105.869 11.0386 106.772 11.2255C107.675 11.3967 108.586 11.7236 109.505 12.2063C110.439 12.6889 111.233 13.3038 111.887 14.0511C112.54 14.7828 113.039 15.6469 113.381 16.6433C113.724 17.6241 113.895 18.7294 113.895 19.9593ZM107.473 20.403C107.473 19.3444 107.286 18.4725 106.912 17.7875C106.539 17.1025 106.079 16.5966 105.535 16.2696C104.99 15.9427 104.414 15.7403 103.807 15.6624C103.215 15.569 102.6 15.5223 101.962 15.5223H99.3462V25.7741H102.102C103.083 25.7741 103.9 25.6418 104.554 25.3771C105.223 25.1125 105.768 24.7466 106.188 24.2796C106.609 23.7969 106.928 23.2287 107.146 22.5748C107.364 21.9054 107.473 21.1814 107.473 20.403ZM149.837 38.7114C150.024 39.2719 150.141 39.7156 150.188 40.0425C150.234 40.3695 150.172 40.6186 150.001 40.7898C149.829 40.9455 149.526 41.0389 149.09 41.0701C148.654 41.1168 148.055 41.1401 147.292 41.1401C146.498 41.1401 145.875 41.1245 145.424 41.0934C144.988 41.0778 144.653 41.0389 144.419 40.9766C144.186 40.8988 144.022 40.7976 143.929 40.6731C143.836 40.5485 143.758 40.385 143.696 40.1827L141.664 34.111H130.314L128.4 40.0192C128.337 40.2371 128.252 40.424 128.143 40.5797C128.049 40.7198 127.886 40.8365 127.652 40.9299C127.434 41.0078 127.115 41.0623 126.695 41.0934C126.29 41.1245 125.753 41.1401 125.084 41.1401C124.367 41.1401 123.807 41.1168 123.402 41.0701C122.997 41.0234 122.717 40.9144 122.561 40.7431C122.406 40.5563 122.351 40.2994 122.398 39.9725C122.445 39.6456 122.561 39.2096 122.748 38.6647L132.066 11.856C132.159 11.5913 132.268 11.3811 132.393 11.2255C132.517 11.0542 132.712 10.9297 132.977 10.8518C133.257 10.7584 133.638 10.7039 134.121 10.6883C134.604 10.6572 135.242 10.6416 136.036 10.6416C136.954 10.6416 137.686 10.6572 138.231 10.6883C138.776 10.7039 139.196 10.7584 139.492 10.8518C139.803 10.9297 140.021 11.0542 140.146 11.2255C140.286 11.3967 140.403 11.6302 140.496 11.926L149.837 38.7114ZM135.966 16.5498H135.942L131.669 29.3938H140.239L135.966 16.5498ZM197.876 40.1827C197.876 40.3539 197.83 40.5018 197.736 40.6264C197.643 40.7353 197.472 40.8287 197.222 40.9066C196.989 40.9844 196.662 41.0389 196.242 41.0701C195.837 41.1168 195.315 41.1401 194.677 41.1401C194.023 41.1401 193.486 41.1168 193.066 41.0701C192.645 41.0389 192.311 40.9844 192.062 40.9066C191.828 40.8132 191.649 40.6964 191.524 40.5563C191.415 40.4006 191.322 40.2138 191.244 39.9958L189.072 33.1535C188.777 32.1883 188.45 31.3865 188.092 30.7482C187.749 30.0943 187.352 29.565 186.901 29.1602C186.465 28.7555 185.966 28.4752 185.406 28.3195C184.861 28.1483 184.231 28.0627 183.514 28.0627H182.323V40.1593C182.323 40.3306 182.277 40.4785 182.183 40.603C182.09 40.712 181.927 40.8132 181.693 40.9066C181.475 40.9844 181.171 41.0389 180.782 41.0701C180.393 41.1168 179.903 41.1401 179.311 41.1401C178.719 41.1401 178.229 41.1168 177.84 41.0701C177.451 41.0389 177.139 40.9844 176.906 40.9066C176.688 40.8132 176.532 40.712 176.439 40.603C176.361 40.4785 176.322 40.3306 176.322 40.1593V28.0627H175.131C174.368 28.0627 173.699 28.1639 173.123 28.3663C172.547 28.5531 172.041 28.8567 171.605 29.277C171.169 29.6818 170.787 30.2033 170.46 30.8416C170.133 31.4799 169.83 32.2506 169.55 33.1535L167.401 39.9958C167.323 40.2138 167.222 40.4006 167.098 40.5563C166.989 40.6964 166.81 40.8132 166.561 40.9066C166.311 40.9844 165.977 41.0389 165.556 41.0701C165.152 41.1168 164.622 41.1401 163.968 41.1401C163.314 41.1401 162.785 41.1168 162.38 41.0701C161.976 41.0389 161.649 40.9844 161.4 40.9066C161.166 40.8287 161.003 40.7353 160.909 40.6264C160.816 40.5018 160.769 40.3539 160.769 40.1827C160.769 40.1048 160.769 40.0114 160.769 39.9024C160.785 39.7934 160.808 39.6689 160.839 39.5288C160.886 39.3731 160.94 39.1941 161.003 38.9917C161.065 38.7893 161.15 38.548 161.259 38.2677L163.361 32.2428C163.75 31.1219 164.14 30.18 164.529 29.4171C164.918 28.6387 165.331 27.9926 165.767 27.4789C166.202 26.9495 166.677 26.5214 167.191 26.1945C167.705 25.852 168.281 25.5562 168.919 25.3071V25.2837C168.374 25.1125 167.868 24.8789 167.401 24.5831C166.95 24.2873 166.522 23.8981 166.117 23.4155C165.728 22.9173 165.346 22.3024 164.973 21.5707C164.614 20.8389 164.256 19.9515 163.898 18.9085L162.1 13.4907C161.929 12.9925 161.812 12.6033 161.75 12.323C161.688 12.0272 161.656 11.7781 161.656 11.5757C161.656 11.4045 161.695 11.2644 161.773 11.1554C161.867 11.0309 162.022 10.9374 162.24 10.8752C162.474 10.7973 162.785 10.7428 163.174 10.7117C163.579 10.665 164.093 10.6416 164.716 10.6416C165.37 10.6416 165.899 10.665 166.304 10.7117C166.708 10.7428 167.028 10.8051 167.261 10.8985C167.495 10.9764 167.658 11.0931 167.751 11.2488C167.86 11.3889 167.946 11.568 168.008 11.7859L169.923 18.1845C170.188 19.0719 170.468 19.8192 170.764 20.4264C171.075 21.0335 171.433 21.5239 171.838 21.8976C172.243 22.2712 172.71 22.5437 173.239 22.7149C173.769 22.8706 174.399 22.9485 175.131 22.9485H176.322V11.5991C176.322 11.4278 176.361 11.2877 176.439 11.1788C176.532 11.0542 176.688 10.953 176.906 10.8752C177.139 10.7973 177.451 10.7428 177.84 10.7117C178.229 10.665 178.719 10.6416 179.311 10.6416C179.903 10.6416 180.393 10.665 180.782 10.7117C181.171 10.7428 181.475 10.7973 181.693 10.8752C181.927 10.953 182.09 11.0542 182.183 11.1788C182.277 11.2877 182.323 11.4278 182.323 11.5991V22.9485H183.514C184.215 22.9485 184.83 22.8628 185.359 22.6916C185.904 22.5048 186.379 22.2167 186.784 21.8275C187.204 21.4383 187.57 20.9479 187.881 20.3563C188.193 19.7492 188.473 19.0174 188.722 18.1612L190.637 11.7859C190.699 11.568 190.777 11.3889 190.871 11.2488C190.98 11.0931 191.151 10.9764 191.384 10.8985C191.618 10.8051 191.937 10.7428 192.342 10.7117C192.747 10.665 193.276 10.6416 193.93 10.6416C194.552 10.6416 195.058 10.665 195.448 10.7117C195.837 10.7428 196.148 10.7973 196.382 10.8752C196.615 10.9374 196.771 11.0309 196.849 11.1554C196.942 11.2644 196.989 11.4045 196.989 11.5757C196.989 11.7781 196.95 12.0272 196.872 12.323C196.81 12.6188 196.701 13.008 196.545 13.4907L194.747 18.815C194.405 19.8114 194.054 20.6677 193.696 21.3838C193.354 22.0844 192.98 22.676 192.575 23.1586C192.186 23.6412 191.758 24.046 191.291 24.373C190.824 24.6843 190.302 24.949 189.726 25.1669V25.1903C190.38 25.4705 190.964 25.7897 191.478 26.1478C191.991 26.4903 192.466 26.9262 192.902 27.4555C193.338 27.9848 193.743 28.6387 194.117 29.4171C194.49 30.18 194.879 31.1219 195.284 32.2428L197.363 38.2677C197.472 38.548 197.557 38.7893 197.619 38.9917C197.682 39.1941 197.728 39.3731 197.76 39.5288C197.806 39.6689 197.837 39.7934 197.853 39.9024C197.869 40.0114 197.876 40.1048 197.876 40.1827Z" fill="white"/>
</svg>
