<svg width="48" height="48" viewBox="0 0 48 48" fill="none" xmlns="http://www.w3.org/2000/svg">
<path d="M18.742 30.383L18.7432 30.3829C18.8943 30.3655 19.0322 30.416 19.1323 30.5161L21.2871 32.6709C19.4779 33.3603 17.5409 33.7904 15.5216 33.9159C15.4293 33.9217 15.3311 33.8913 15.2385 33.8007C15.1415 33.706 15.0835 33.5742 15.0835 33.4346V31.2195V31.2092L15.0834 31.1989C15.0813 30.993 15.2379 30.7858 15.4963 30.7536C15.4973 30.7535 15.4983 30.7533 15.4993 30.7532L18.742 30.383ZM33.9159 15.5215C33.7906 17.5416 33.3605 19.4786 32.6713 21.2874L30.5033 19.1194L30.5026 19.1186C30.4529 19.069 30.4151 19.0088 30.3921 18.9425C30.369 18.8762 30.3613 18.8055 30.3695 18.7358L30.37 18.7309L30.7405 15.512C30.7405 15.5113 30.7406 15.5105 30.7407 15.5097C30.7715 15.2605 30.9753 15.0833 31.2196 15.0833H33.4346C33.5742 15.0833 33.706 15.1414 33.8007 15.2383C33.8912 15.331 33.9217 15.4292 33.9159 15.5215Z" fill="#D1062B" stroke="#309A0F" stroke-width="4.16667"/>
<circle cx="24" cy="24" r="21.5" stroke="#309A0F" stroke-width="5"/>
</svg>
