<svg width="48" height="48" viewBox="0 0 48 48" fill="none" xmlns="http://www.w3.org/2000/svg">
<path d="M15.2535 28.6844L18.5057 28.3131C19.2867 28.2235 20.0549 28.4924 20.6054 29.0429L22.9613 31.3988C26.5847 29.5551 29.5551 26.5974 31.3988 22.9612L29.0302 20.5925C28.7578 20.3204 28.5506 19.9901 28.4242 19.6264C28.2978 19.2628 28.2555 18.8751 28.3004 18.4928L28.6717 15.2662C28.8253 13.9731 29.9136 13 31.2196 13H33.4346C34.8814 13 36.0849 14.2035 35.9953 15.6503C35.3167 26.5846 26.5719 35.3167 15.6505 35.9953C14.2037 36.0849 13.0001 34.8814 13.0001 33.4346V31.2195C12.9873 29.9264 13.9604 28.8381 15.2535 28.6844Z" fill="#309a0f"/>
<circle cx="24" cy="24" r="21.5" stroke="#309a0f" stroke-width="5"/>
</svg>
