<svg width="108" height="108" viewBox="0 0 108 108" fill="none" xmlns="http://www.w3.org/2000/svg">
<g filter="url(#filter0_d_84_337)">
<path d="M43.25 42.5208V64.8125C43.25 66.4792 43.9792 67.6944 45.4375 68.4583C46.8958 69.2222 48.3194 69.1528 49.7083 68.25L67 57.2083C68.3194 56.4444 68.9792 55.2639 68.9792 53.6667C68.9792 52.0694 68.3194 50.8889 67 50.125L49.7083 39.0833C48.3194 38.1806 46.8958 38.1111 45.4375 38.875C43.9792 39.6389 43.25 40.8542 43.25 42.5208ZM53.6667 95.3333C47.9028 95.3333 42.4861 94.2389 37.4167 92.05C32.3472 89.8639 27.9375 86.8958 24.1875 83.1458C20.4375 79.3958 17.4694 74.9861 15.2833 69.9167C13.0944 64.8472 12 59.4306 12 53.6667C12 47.9028 13.0944 42.4861 15.2833 37.4167C17.4694 32.3472 20.4375 27.9375 24.1875 24.1875C27.9375 20.4375 32.3472 17.4681 37.4167 15.2792C42.4861 13.0931 47.9028 12 53.6667 12C59.4306 12 64.8472 13.0931 69.9167 15.2792C74.9861 17.4681 79.3958 20.4375 83.1458 24.1875C86.8958 27.9375 89.8639 32.3472 92.05 37.4167C94.2389 42.4861 95.3333 47.9028 95.3333 53.6667C95.3333 59.4306 94.2389 64.8472 92.05 69.9167C89.8639 74.9861 86.8958 79.3958 83.1458 83.1458C79.3958 86.8958 74.9861 89.8639 69.9167 92.05C64.8472 94.2389 59.4306 95.3333 53.6667 95.3333ZM53.6667 87C62.9028 87 70.7681 83.7542 77.2625 77.2625C83.7542 70.7681 87 62.9028 87 53.6667C87 44.4306 83.7542 36.5653 77.2625 30.0708C70.7681 23.5792 62.9028 20.3333 53.6667 20.3333C44.4306 20.3333 36.5667 23.5792 30.075 30.0708C23.5806 36.5653 20.3333 44.4306 20.3333 53.6667C20.3333 62.9028 23.5806 70.7681 30.075 77.2625C36.5667 83.7542 44.4306 87 53.6667 87Z" fill="#FF4667"/>
</g>
<defs>
<filter id="filter0_d_84_337" x="0" y="0" width="107.333" height="107.333" filterUnits="userSpaceOnUse" color-interpolation-filters="sRGB">
<feFlood flood-opacity="0" result="BackgroundImageFix"/>
<feColorMatrix in="SourceAlpha" type="matrix" values="0 0 0 0 0 0 0 0 0 0 0 0 0 0 0 0 0 0 127 0" result="hardAlpha"/>
<feMorphology radius="2" operator="dilate" in="SourceAlpha" result="effect1_dropShadow_84_337"/>
<feOffset/>
<feGaussianBlur stdDeviation="5"/>
<feComposite in2="hardAlpha" operator="out"/>
<feColorMatrix type="matrix" values="0 0 0 0 1 0 0 0 0 0.5875 0 0 0 0 0.66175 0 0 0 1 0"/>
<feBlend mode="normal" in2="BackgroundImageFix" result="effect1_dropShadow_84_337"/>
<feBlend mode="normal" in="SourceGraphic" in2="effect1_dropShadow_84_337" result="shape"/>
</filter>
</defs>
</svg>
