<svg width="84" height="84" viewBox="0 0 84 84" fill="none" xmlns="http://www.w3.org/2000/svg">
<path d="M31.25 30.5208V52.8125C31.25 54.4792 31.9792 55.6944 33.4375 56.4583C34.8958 57.2222 36.3194 57.1528 37.7083 56.25L55 45.2083C56.3194 44.4444 56.9792 43.2639 56.9792 41.6667C56.9792 40.0694 56.3194 38.8889 55 38.125L37.7083 27.0833C36.3194 26.1806 34.8958 26.1111 33.4375 26.875C31.9792 27.6389 31.25 28.8542 31.25 30.5208ZM41.6667 83.3333C35.9028 83.3333 30.4861 82.2389 25.4167 80.05C20.3472 77.8639 15.9375 74.8958 12.1875 71.1458C8.4375 67.3958 5.46944 62.9861 3.28333 57.9167C1.09444 52.8472 0 47.4306 0 41.6667C0 35.9028 1.09444 30.4861 3.28333 25.4167C5.46944 20.3472 8.4375 15.9375 12.1875 12.1875C15.9375 8.4375 20.3472 5.46806 25.4167 3.27917C30.4861 1.09306 35.9028 0 41.6667 0C47.4306 0 52.8472 1.09306 57.9167 3.27917C62.9861 5.46806 67.3958 8.4375 71.1458 12.1875C74.8958 15.9375 77.8639 20.3472 80.05 25.4167C82.2389 30.4861 83.3333 35.9028 83.3333 41.6667C83.3333 47.4306 82.2389 52.8472 80.05 57.9167C77.8639 62.9861 74.8958 67.3958 71.1458 71.1458C67.3958 74.8958 62.9861 77.8639 57.9167 80.05C52.8472 82.2389 47.4306 83.3333 41.6667 83.3333ZM41.6667 75C50.9028 75 58.7681 71.7542 65.2625 65.2625C71.7542 58.7681 75 50.9028 75 41.6667C75 32.4306 71.7542 24.5653 65.2625 18.0708C58.7681 11.5792 50.9028 8.33333 41.6667 8.33333C32.4306 8.33333 24.5667 11.5792 18.075 18.0708C11.5806 24.5653 8.33333 32.4306 8.33333 41.6667C8.33333 50.9028 11.5806 58.7681 18.075 65.2625C24.5667 71.7542 32.4306 75 41.6667 75Z" fill="#D1062B"/>
</svg>
