<svg width="38" height="38" viewBox="0 0 38 38" fill="none" xmlns="http://www.w3.org/2000/svg">
<path d="M19 9.18497C17.0588 9.18497 15.1611 9.76061 13.5471 10.8391C11.933 11.9176 10.675 13.4505 9.93209 15.2439C9.18922 17.0374 8.99485 19.0109 9.37356 20.9148C9.75228 22.8187 10.6871 24.5676 12.0597 25.9403C13.4324 27.3129 15.1813 28.2477 17.0852 28.6264C18.9891 29.0052 20.9626 28.8108 22.7561 28.0679C24.5495 27.325 26.0824 26.067 27.1609 24.4529C28.2394 22.8389 28.815 20.9412 28.815 19C28.815 16.3969 27.781 13.9004 25.9403 12.0597C24.0996 10.219 21.6031 9.18497 19 9.18497ZM19 26.0107C17.6134 26.0107 16.258 25.5996 15.105 24.8292C13.9521 24.0589 13.0535 22.9639 12.5229 21.6829C11.9923 20.4018 11.8535 18.9922 12.124 17.6323C12.3945 16.2723 13.0622 15.0231 14.0427 14.0427C15.0231 13.0622 16.2723 12.3945 17.6323 12.124C18.9922 11.8535 20.4018 11.9923 21.6829 12.5229C22.9639 13.0535 24.0589 13.9521 24.8292 15.105C25.5996 16.258 26.0107 17.6134 26.0107 19C26.0107 20.8594 25.2721 22.6426 23.9573 23.9573C22.6426 25.2721 20.8594 26.0107 19 26.0107ZM37.7187 22.926L35.1072 19.4557C35.1247 19.1402 35.1072 18.8072 35.1072 18.5618L37.7187 15.074C37.8485 14.9042 37.9368 14.7064 37.9764 14.4964C38.0159 14.2864 38.0057 14.07 37.9465 13.8646C37.5048 12.2488 36.863 10.6944 36.0361 9.23755C35.9294 9.05249 35.7828 8.89354 35.6069 8.77227C35.4311 8.65099 35.2304 8.57044 35.0195 8.53648L30.7255 7.92304L30.077 7.27454L29.4635 2.98047C29.4296 2.76957 29.349 2.5689 29.2277 2.39305C29.1065 2.21721 28.9475 2.0706 28.7625 1.96391C27.3056 1.13697 25.7512 0.495195 24.1354 0.0534839C23.93 -0.00571114 23.7136 -0.0159337 23.5036 0.0236364C23.2936 0.0632065 23.0958 0.151467 22.926 0.281333L19.4557 2.87531H18.5443L15.074 0.281333C14.9042 0.151467 14.7064 0.0632065 14.4964 0.0236364C14.2864 -0.0159337 14.07 -0.00571114 13.8646 0.0534839C12.2488 0.495195 10.6944 1.13697 9.23755 1.96391C9.05249 2.0706 8.89354 2.21721 8.77227 2.39305C8.65099 2.5689 8.57044 2.76957 8.53648 2.98047L7.92304 7.27454L7.27454 7.92304L2.98047 8.53648C2.76957 8.57044 2.5689 8.65099 2.39305 8.77227C2.21721 8.89354 2.0706 9.05249 1.96391 9.23755C1.13697 10.6944 0.495195 12.2488 0.0534839 13.8646C-0.00571114 14.07 -0.0159337 14.2864 0.0236364 14.4964C0.0632065 14.7064 0.151467 14.9042 0.281333 15.074L2.89283 18.5443V19.4382L0.281333 22.926C0.151467 23.0958 0.0632065 23.2936 0.0236364 23.5036C-0.0159337 23.7136 -0.00571114 23.93 0.0534839 24.1354C0.495195 25.7512 1.13697 27.3056 1.96391 28.7625C2.0706 28.9475 2.21721 29.1065 2.39305 29.2277C2.5689 29.349 2.76957 29.4296 2.98047 29.4635L7.27454 30.077L7.92304 30.7255L8.53648 35.0195C8.57044 35.2304 8.65099 35.4311 8.77227 35.6069C8.89354 35.7828 9.05249 35.9294 9.23755 36.0361C10.6944 36.863 12.2488 37.5048 13.8646 37.9465C13.9843 37.9812 14.1082 37.9989 14.2327 37.9991C14.5367 38.0031 14.8332 37.9042 15.074 37.7187L18.5443 35.1247H19.4557L22.926 37.7187C23.0958 37.8485 23.2936 37.9368 23.5036 37.9764C23.7136 38.0159 23.93 38.0057 24.1354 37.9465C25.7512 37.5048 27.3056 36.863 28.7625 36.0361C28.9475 35.9294 29.1065 35.7828 29.2277 35.6069C29.349 35.4311 29.4296 35.2304 29.4635 35.0195L30.077 30.7079C30.2873 30.4976 30.5327 30.2698 30.7079 30.077L35.0195 29.4635C35.2304 29.4296 35.4311 29.349 35.6069 29.2277C35.7828 29.1065 35.9294 28.9475 36.0361 28.7625C36.863 27.3056 37.5048 25.7512 37.9465 24.1354C38.0057 23.93 38.0159 23.7136 37.9764 23.5036C37.9368 23.2936 37.8485 23.0958 37.7187 22.926ZM33.9153 26.7819L29.8316 27.3603C29.5163 27.412 29.2269 27.5659 29.0078 27.7985C28.7975 28.0263 28.149 28.6923 27.8335 28.9728C27.5776 29.1928 27.4095 29.4977 27.3603 29.8316L26.7819 33.9153C25.9089 34.3813 24.9933 34.7628 24.0477 35.0546L20.7352 32.5658C20.4685 32.3666 20.1377 32.273 19.8062 32.3029H18.1938C17.8623 32.273 17.5315 32.3666 17.2648 32.5658L13.9523 35.0546C13.0067 34.7628 12.0911 34.3813 11.2181 33.9153L10.6397 29.8316C10.5905 29.4977 10.4224 29.1928 10.1665 28.9728C9.7609 28.6198 9.38024 28.2391 9.02723 27.8335C8.80724 27.5776 8.50231 27.4095 8.16841 27.3603L4.08466 26.7819C3.62601 25.9054 3.24481 24.9906 2.94541 24.0477L5.43422 20.7352C5.61469 20.4784 5.71252 20.1727 5.71465 19.8588C5.69713 19.5433 5.6796 18.6319 5.69713 18.1938C5.72703 17.8623 5.6334 17.5315 5.43422 17.2648L2.94541 13.9523C3.24481 13.0094 3.62601 12.0946 4.08466 11.2181L8.16841 10.6397C8.50231 10.5905 8.80724 10.4224 9.02723 10.1665C9.38024 9.7609 9.7609 9.38024 10.1665 9.02723C10.4224 8.80724 10.5905 8.50231 10.6397 8.16841L11.2181 4.08466C12.0946 3.62601 13.0094 3.24481 13.9523 2.94541L17.2648 5.43422C17.5315 5.6334 17.8623 5.72703 18.1938 5.69713C18.7196 5.6796 19.2804 5.6796 19.8062 5.69713C20.1377 5.72703 20.4685 5.6334 20.7352 5.43422L24.0477 2.94541C24.9933 3.23717 25.9089 3.61866 26.7819 4.08466L27.3603 8.16841C27.4095 8.50231 27.5776 8.80724 27.8335 9.02723C28.2391 9.38024 28.6198 9.7609 28.9728 10.1665C29.1928 10.4224 29.4977 10.5905 29.8316 10.6397L33.9153 11.2181C34.3813 12.0911 34.7628 13.0067 35.0546 13.9523L32.5658 17.2648C32.3853 17.5216 32.2875 17.8273 32.2853 18.1412C32.3029 18.4567 32.3204 19.3681 32.3029 19.8062C32.273 20.1377 32.3666 20.4685 32.5658 20.7352L35.0546 24.0477C34.7628 24.9933 34.3813 25.9089 33.9153 26.7819Z" fill="#309A0F"/>
</svg>
