<svg width="17" height="16" viewBox="0 0 17 16" fill="none" xmlns="http://www.w3.org/2000/svg">
<path d="M7.58567 0.863565C7.86954 0.359926 8.5948 0.359924 8.87868 0.863564L10.892 4.43563C10.9979 4.62352 11.1803 4.75604 11.3918 4.7987L15.4112 5.60969C15.9779 5.72404 16.202 6.41381 15.8107 6.83942L13.0357 9.85807C12.8897 10.0169 12.82 10.2313 12.8448 10.4455L13.3155 14.5188C13.3819 15.0931 12.7952 15.5194 12.2695 15.2788L8.54102 13.5724C8.3449 13.4826 8.11944 13.4826 7.92333 13.5724L4.19487 15.2788C3.66918 15.5194 3.08243 15.0931 3.14881 14.5188L3.61957 10.4455C3.64433 10.2313 3.57466 10.0169 3.42869 9.85807L0.65362 6.83942C0.262351 6.41381 0.486468 5.72404 1.05318 5.60969L5.07258 4.7987C5.284 4.75604 5.4664 4.62352 5.5723 4.43563L7.58567 0.863565Z" fill="#F9ED37"/>
</svg>
