<svg width="43" height="44" viewBox="0 0 43 44" fill="none" xmlns="http://www.w3.org/2000/svg">
<g clip-path="url(#clip0_22_32)">
<path d="M0 21.12C0 11.1637 0 6.18047 3.022 3.09228C6.044 0.00409292 10.91 0 20.64 0H22.36C32.09 0 36.96 0 39.978 3.09228C42.996 6.18456 43 11.1637 43 21.12V22.88C43 32.8363 43 37.8195 39.978 40.9077C36.956 43.9959 32.09 44 22.36 44H20.64C10.91 44 6.04 44 3.022 40.9077C0.0039999 37.8154 0 32.8363 0 22.88V21.12Z" fill="#0077FF"/>
<path d="M22.4 30.9022C13.228 30.9022 8.00003 24.468 7.78003 13.7627H12.38C12.53 21.6213 15.918 24.9489 18.6 25.6325V13.7627H22.926V20.5407C25.574 20.2481 28.358 17.1599 29.296 13.7627H33.622C32.902 17.9499 29.884 21.038 27.738 22.3069C29.884 23.3301 33.32 26.0295 34.628 30.9022H29.858C28.836 27.6278 26.288 25.1106 22.918 24.7627V30.9022H22.4Z" fill="white"/>
</g>
<defs>
<clipPath id="clip0_22_32">
<rect width="43" height="44" fill="white"/>
</clipPath>
</defs>
</svg>
