<svg width="44" height="44" viewBox="0 0 44 44" fill="none" xmlns="http://www.w3.org/2000/svg">
<g clip-path="url(#clip0_22_45)">
<path d="M0 21.12C0 11.1637 -2.92756e-06 6.18047 3.09228 3.09228C6.18456 0.00409292 11.1637 0 21.12 0H22.88C32.8363 0 37.8195 0 40.9077 3.09228C43.9959 6.18456 44 11.1637 44 21.12V22.88C44 32.8363 44 37.8195 40.9077 40.9077C37.8154 43.9959 32.8363 44 22.88 44H21.12C11.1637 44 6.18046 44 3.09228 40.9077C0.00408999 37.8154 0 32.8363 0 22.88V21.12Z" fill="#25D366"/>
<path d="M10.1445 34.0477L11.8431 27.8426C10.5274 25.5591 10.0019 22.9053 10.3479 20.2927C10.6939 17.6801 11.8921 15.2546 13.7569 13.3923C15.6216 11.5299 18.0487 10.3348 20.6618 9.99225C23.2749 9.64965 25.928 10.1787 28.2098 11.4974C30.4916 12.8161 32.2746 14.8507 33.2824 17.2858C34.2902 19.7209 34.4665 22.4205 33.7839 24.9661C33.1013 27.5116 31.5981 29.7608 29.5071 31.365C27.4162 32.9692 24.8544 33.8388 22.219 33.8389C20.2204 33.8393 18.2537 33.3383 16.4989 32.3818L10.1445 34.0477ZM16.7814 30.2145L17.1457 30.4294C18.6788 31.3383 20.4284 31.8176 22.2108 31.817C24.4166 31.8166 26.5598 31.0832 28.3034 29.7321C30.0471 28.3811 31.2923 26.4889 31.8435 24.353C32.3946 22.2172 32.2205 19.9587 31.3483 17.9326C30.4761 15.9065 28.9554 14.2277 27.0252 13.16C25.095 12.0923 22.8647 11.6962 20.6849 12.0341C18.5051 12.372 16.4994 13.4246 14.9829 15.0265C13.4665 16.6284 12.5254 18.6889 12.3075 20.8839C12.0896 23.0789 12.6073 25.2842 13.7791 27.153L14.0165 27.5295L13.0117 31.203L16.7814 30.2145Z" fill="white"/>
<path fill-rule="evenodd" clip-rule="evenodd" d="M28.2418 24.7136C28.1682 24.5888 27.9676 24.509 27.6688 24.3637C27.37 24.2184 25.8986 23.4898 25.6223 23.3916C25.346 23.2933 25.1495 23.2401 24.949 23.541C24.7484 23.8418 24.1775 24.5131 24.0015 24.7136C23.8255 24.9142 23.6535 24.9387 23.3548 24.7893C22.4729 24.4364 21.6587 23.9338 20.9481 23.3036C20.2941 22.6986 19.7334 21.9999 19.2842 21.2305C19.1103 20.9317 19.2658 20.77 19.4152 20.6165C19.5646 20.463 19.714 20.2666 19.8634 20.0926C19.9863 19.9412 20.0869 19.7731 20.1622 19.5933C20.2024 19.5109 20.2212 19.4197 20.2169 19.3282C20.2126 19.2366 20.1854 19.1476 20.1376 19.0693C20.064 18.92 19.4643 17.4465 19.2167 16.8468C18.9691 16.2472 18.7255 16.3434 18.5434 16.3332C18.3613 16.3229 18.1689 16.3332 17.9683 16.3332C17.8206 16.3392 17.6756 16.3749 17.542 16.4382C17.4084 16.5015 17.2889 16.5911 17.1907 16.7015C16.8523 17.0222 16.5844 17.4098 16.404 17.8396C16.2236 18.2695 16.1347 18.7322 16.1429 19.1983C16.1429 20.6697 17.2152 22.092 17.3708 22.2926C17.5263 22.4932 19.4807 25.5138 22.487 26.8093C23.0441 27.0502 23.6139 27.2606 24.1938 27.4396C24.8034 27.6263 25.4484 27.6669 26.0766 27.5583C26.6517 27.4723 27.8468 26.8359 28.0965 26.1257C28.3462 25.4156 28.3257 24.8385 28.2418 24.7136Z" fill="white"/>
</g>
<defs>
<clipPath id="clip0_22_45">
<rect width="44" height="44" fill="white"/>
</clipPath>
</defs>
</svg>
